<svg xmlns="http://www.w3.org/2000/svg" viewBox="0 0 30 30">
  <path d="M5 6C3.895 6 3 6.895 3 8L3 20C3 21.105 3.895 22 5 22L25 22C26.105 22 27 21.105 27 20L27 8C27 6.895 26.105 6 25 6L5 6 z M 5 9L8 9L8 11L5 11L5 9 z M 15 9C15.954 9 16.25 9.6777344 16.25 9.6777344C17.103 9.6777344 17.5 10.611031 17.5 11.707031C17.5 12.254031 17.279297 12.707031 17.279297 12.707031C17.367297 12.762031 17.514516 12.937047 17.478516 13.248047C17.410516 13.827047 17.17825 13.974328 17.03125 13.986328C16.97525 14.526328 16.189953 15.218359 16.001953 15.318359L16.001953 16.222656C16.375953 17.439656 18.451953 16.843 19.001953 19L11 19C11.55 16.843 13.626 17.439656 14 16.222656L14 15.318359C13.812 15.218359 13.026703 14.526328 12.970703 13.986328C12.823703 13.974328 12.591438 13.827047 12.523438 13.248047C12.486437 12.937047 12.631703 12.762031 12.720703 12.707031C12.720703 12.707031 12.501953 12.206031 12.501953 11.707031C12.500953 10.227031 13.233 9 15 9 z M 5 13L8 13L8 15L5 15L5 13 z M 5 17L8 17L8 19L5 19L5 17 z M 10 24 A 1.0001 1.0001 0 1 0 10 26L20 26 A 1.0001 1.0001 0 1 0 20 24L10 24 z" fill="#F5F5F4" />
</svg>