<svg width="1920" height="1080" viewBox="0 0 1920 1080" fill="none" xmlns="http://www.w3.org/2000/svg">
<rect width="1920" height="1080" fill="#1C1917"/>
<rect x="946.5" y="82.5" width="26" height="25" rx="3.5" stroke="#292524" stroke-width="3"/>
<rect x="1225.5" y="82.5" width="25" height="25" rx="3.5" stroke="#292524" stroke-width="3"/>
<rect x="1503.5" y="82.5" width="26" height="25" rx="3.5" stroke="#292524" stroke-width="3"/>
<rect x="1782.5" y="82.5" width="25" height="25" rx="3.5" stroke="#292524" stroke-width="3"/>
<rect x="1782.5" y="260.5" width="25" height="25" rx="3.5" stroke="#292524" stroke-width="3"/>
<rect x="668.5" y="793.5" width="25" height="25" rx="3.5" stroke="#292524" stroke-width="3"/>
<rect x="946.5" y="793.5" width="26" height="25" rx="3.5" stroke="#292524" stroke-width="3"/>
<rect x="1503.5" y="793.5" width="26" height="25" rx="3.5" stroke="#292524" stroke-width="3"/>
<rect x="1782.5" y="793.5" width="25" height="25" rx="3.5" stroke="#292524" stroke-width="3"/>
<rect x="1225.5" y="793.5" width="25" height="25" rx="3.5" stroke="#292524" stroke-width="3"/>
<rect x="668.5" y="260.5" width="25" height="25" rx="3.5" stroke="#292524" stroke-width="3"/>
<rect x="668.5" y="82.5" width="25" height="25" rx="3.5" stroke="#292524" stroke-width="3"/>
<rect x="1225.5" y="260.5" width="25" height="25" rx="3.5" stroke="#292524" stroke-width="3"/>
<rect x="1503.5" y="260.5" width="26" height="25" rx="3.5" stroke="#292524" stroke-width="3"/>
<rect x="946.5" y="260.5" width="26" height="25" rx="3.5" stroke="#292524" stroke-width="3"/>
<rect x="668.5" y="438.5" width="25" height="24" rx="3.5" stroke="#292524" stroke-width="3"/>
<rect x="946.5" y="438.5" width="26" height="24" rx="3.5" stroke="#292524" stroke-width="3"/>
<rect x="1503.5" y="438.5" width="26" height="24" rx="3.5" stroke="#292524" stroke-width="3"/>
<rect x="1782.5" y="438.5" width="25" height="24" rx="3.5" stroke="#292524" stroke-width="3"/>
<rect x="1225.5" y="438.5" width="25" height="24" rx="3.5" stroke="#292524" stroke-width="3"/>
<rect x="668.5" y="615.5" width="25" height="25" rx="3.5" stroke="#292524" stroke-width="3"/>
<rect x="946.5" y="615.5" width="26" height="25" rx="3.5" stroke="#292524" stroke-width="3"/>
<rect x="1503.5" y="615.5" width="26" height="25" rx="3.5" stroke="#292524" stroke-width="3"/>
<rect x="1782.5" y="615.5" width="25" height="25" rx="3.5" stroke="#292524" stroke-width="3"/>
<rect x="1225.5" y="615.5" width="25" height="25" rx="3.5" stroke="#292524" stroke-width="3"/>
<rect x="668.5" y="971.5" width="25" height="25" rx="3.5" stroke="#292524" stroke-width="3"/>
<rect x="111.5" y="82.5" width="25" height="25" rx="3.5" stroke="#292524" stroke-width="3"/>
<rect x="111.5" y="793.5" width="25" height="25" rx="3.5" stroke="#292524" stroke-width="3"/>
<rect x="111.5" y="260.5" width="25" height="25" rx="3.5" stroke="#292524" stroke-width="3"/>
<rect x="111.5" y="438.5" width="25" height="24" rx="3.5" stroke="#292524" stroke-width="3"/>
<rect x="111.5" y="615.5" width="25" height="25" rx="3.5" stroke="#292524" stroke-width="3"/>
<rect x="111.5" y="971.5" width="25" height="25" rx="3.5" stroke="#292524" stroke-width="3"/>
<rect x="389.5" y="82.5" width="26" height="25" rx="3.5" stroke="#292524" stroke-width="3"/>
<rect x="389.5" y="793.5" width="26" height="25" rx="3.5" stroke="#292524" stroke-width="3"/>
<rect x="389.5" y="260.5" width="26" height="25" rx="3.5" stroke="#292524" stroke-width="3"/>
<rect x="389.5" y="438.5" width="26" height="24" rx="3.5" stroke="#292524" stroke-width="3"/>
<rect x="389.5" y="615.5" width="26" height="25" rx="3.5" stroke="#292524" stroke-width="3"/>
<rect x="389.5" y="971.5" width="26" height="25" rx="3.5" stroke="#292524" stroke-width="3"/>
<rect x="946.5" y="971.5" width="26" height="25" rx="3.5" stroke="#292524" stroke-width="3"/>
<rect x="1503.5" y="971.5" width="26" height="25" rx="3.5" stroke="#292524" stroke-width="3"/>
<rect x="1782.5" y="971.5" width="25" height="25" rx="3.5" stroke="#292524" stroke-width="3"/>
<rect x="1225.5" y="971.5" width="25" height="25" rx="3.5" stroke="#292524" stroke-width="3"/>
</svg>
